<svg width="177" height="104" viewBox="0 0 177 104" fill="none" xmlns="http://www.w3.org/2000/svg">
<path d="M174.978 93.9161C174.018 94.9765 173.117 95.7768 172.316 96.297C171.496 96.8372 170.455 97.1374 169.214 97.2374C167.392 97.2374 165.991 96.4771 165.031 94.9365C164.07 93.3959 163.169 90.7149 162.288 86.8734L158.986 72.0277C157.725 66.0654 155.023 61.6037 150.839 58.6225C146.676 55.6614 140.231 53.8007 131.544 53.0204C135.327 52.6202 138.71 51.96 141.692 51.0596C147.256 49.399 151.66 47.1381 154.882 44.297C158.085 41.4559 160.367 38.3948 161.728 35.0735C163.069 31.7722 163.73 28.471 163.73 25.2097C163.73 19.9277 162.268 15.4059 159.346 11.6645C156.404 7.92305 152 5.06195 146.076 3.10119C140.171 1.14044 132.745 0.140054 123.818 0.140054H123.798C121.976 0.140054 118.894 0.200077 114.591 0.280108C112.249 0.340131 109.867 0.380146 107.445 0.400154C105.383 0.420162 103.302 0.440169 101.2 0.440169H90.9319L88.7502 6.16237L64.3509 70.087L35.3079 0C32.2255 0.100038 28.7027 0.200077 24.7196 0.280108C20.7164 0.380146 16.6732 0.440169 12.5299 0.440169C10.3282 0.440169 8.06638 0.380146 5.76456 0.280108C3.46274 0.200077 1.54122 0.100038 0 0V2.88111C2.98236 2.98115 5.26416 3.34129 6.84541 3.96152C8.42667 4.58176 9.4875 5.74221 10.0079 7.42286C10.5483 9.1035 10.8085 11.7245 10.8085 15.2659V80.0908C10.8085 84.7126 10.5483 88.334 10.0079 90.975C9.4875 93.616 8.44668 95.5167 6.92548 96.6572C5.38426 97.8176 3.06242 98.6379 0 99.1181V101.999C1.54122 101.799 3.46274 101.679 5.76456 101.639C8.06638 101.579 10.3282 101.559 12.5299 101.559C15.132 101.559 17.9142 101.579 20.8965 101.639C23.8789 101.679 26.2808 101.799 28.1022 101.999V99.1181C23.8789 98.6379 20.7764 97.7976 18.7949 96.5972C16.8333 95.3967 15.5523 93.3759 14.9919 90.5348C14.4114 87.7137 14.1312 83.6522 14.1312 78.3701V9.3636L53.042 102.139H55.3438L89.9912 11.6245L90.0712 11.4044V13.9854C90.0913 14.3855 90.0913 14.8257 90.0913 15.2659V86.7134C90.0913 90.1747 89.831 92.7757 89.3106 94.4963C88.7702 96.237 87.7494 97.3775 86.2082 97.9577C84.667 98.5379 82.3651 98.9181 79.2827 99.1181V101.919C80.924 101.819 82.8455 101.739 85.0673 101.699C85.4076 101.699 85.7478 101.679 86.1081 101.679C86.5685 101.679 87.0288 101.659 87.5092 101.659C87.7294 101.639 87.9696 101.639 88.1898 101.639H89.0104C90.0312 101.639 91.072 101.639 92.1129 101.599C95.2754 101.579 98.598 101.559 102.061 101.559C106.084 101.559 110.067 101.579 114.01 101.639C117.953 101.679 121.196 101.799 123.798 101.999V99.1181C120.715 98.9181 118.434 98.5379 116.892 97.9577H116.872C116.292 97.7376 115.792 97.4175 115.351 97.0573C115.171 96.8973 115.011 96.7172 114.851 96.5371C114.37 95.9769 114.03 95.2967 113.77 94.4963C113.25 92.7757 112.989 90.1747 112.989 86.7134V53.5806H122.377C125.359 53.5806 127.681 54.481 129.362 56.2616C131.044 58.0223 132.365 60.4232 133.325 63.4644C134.286 66.4856 135.107 70.0069 135.787 74.0485L138.369 88.454C139.43 94.4163 141.632 98.4779 144.995 100.699C148.357 102.9 152.641 104 157.825 104C162.048 104 165.651 103.36 168.633 102.059C171.616 100.759 174.398 98.6379 177 95.6568L174.978 93.9161ZM119.214 50.6995H113.009V15.2659C113.009 11.7045 113.29 9.00346 113.87 7.14275C114.09 6.40246 114.35 5.78222 114.671 5.32205C115.772 3.70142 118.193 2.88111 121.936 2.88111C122.337 2.88111 122.737 2.88111 123.137 2.90112H123.177C129.062 3.16122 133.265 5.24202 135.787 9.14352C138.47 13.3251 139.811 19.2074 139.811 26.7903C139.811 31.212 139.25 35.2135 138.149 38.8149C137.048 42.4163 135.027 45.2974 132.104 47.4583C129.162 49.6191 124.879 50.6995 119.214 50.6995Z" fill="white"/>
</svg>
